<svg width="38" height="21" viewBox="0 0 38 21" fill="none" xmlns="http://www.w3.org/2000/svg">
<path d="M35.3624 0.470818L18.9983 17.2076L2.63425 0.470818C2.34188 0.171183 1.94939 0.00343505 1.54069 0.00343505C1.13199 0.00343505 0.739507 0.171183 0.447135 0.470818C0.305569 0.616352 0.193103 0.79006 0.116325 0.981771C0.0395471 1.17348 0 1.37934 0 1.58729C0 1.79524 0.0395471 2.0011 0.116325 2.19281C0.193103 2.38452 0.305569 2.55823 0.447135 2.70376L17.8557 20.5124C18.1614 20.825 18.5714 21 18.9983 21C19.4252 21 19.8353 20.825 20.141 20.5124L37.5495 2.7072C37.6921 2.56155 37.8054 2.38742 37.8828 2.19507C37.9601 2.00273 38 1.79607 38 1.58729C38 1.37851 37.9601 1.17185 37.8828 0.979505C37.8054 0.787159 37.6921 0.613025 37.5495 0.467381C37.2571 0.167746 36.8647 0 36.456 0C36.0473 0 35.6548 0.167746 35.3624 0.467381V0.470818Z" fill="black"/>
</svg>
