<svg width="9" height="17" viewBox="0 0 21 38" fill="none" xmlns="http://www.w3.org/2000/svg">
<path d="M20.5292 35.3624L3.7924 18.9983L20.5292 2.63425C20.8288 2.34188 20.9966 1.94939 20.9966 1.54069C20.9966 1.13199 20.8288 0.739507 20.5292 0.447135C20.3836 0.305569 20.2099 0.193103 20.0182 0.116325C19.8265 0.0395471 19.6207 0 19.4127 0C19.2048 0 18.9989 0.0395471 18.8072 0.116325C18.6155 0.193103 18.4418 0.305569 18.2962 0.447135L0.487646 17.8557C0.174986 18.1614 0 18.5714 0 18.9983C0 19.4252 0.174986 19.8353 0.487646 20.141L18.2928 37.5495C18.4384 37.6921 18.6126 37.8054 18.8049 37.8828C18.9973 37.9601 19.2039 38 19.4127 38C19.6215 38 19.8281 37.9601 20.0205 37.8828C20.2128 37.8054 20.387 37.6921 20.5326 37.5495C20.8323 37.2571 21 36.8647 21 36.456C21 36.0473 20.8323 35.6548 20.5326 35.3624H20.5292Z" fill="#949494"/>
</svg>
