<svg width="20" height="20" viewBox="0 0 20 20" fill="none" xmlns="http://www.w3.org/2000/svg">
<path d="M2.44665 3.50201L2.47341 3.48529L5.85594 1.81885L9.50684 6.6867L7.82716 8.92643C7.87742 9.77108 8.23561 10.568 8.83394 11.1663C9.43226 11.7646 10.2292 12.1228 11.0738 12.1731L13.3135 10.4934L18.1813 14.1442L16.5288 17.4985L16.5149 17.5268L16.4981 17.5535C16.4099 17.6956 16.2868 17.8128 16.1405 17.8938C15.9943 17.9749 15.8297 18.0172 15.6624 18.0167H14.7896C13.1079 18.0167 11.4426 17.6854 9.88893 17.0419C8.33522 16.3983 6.92348 15.455 5.73433 14.2658C4.54517 13.0767 3.60188 11.6649 2.95832 10.1112C2.31475 8.55751 1.98352 6.89225 1.98352 5.21053V4.33768C1.98299 4.17044 2.02527 4.00585 2.10633 3.85957C2.1874 3.7133 2.30455 3.5902 2.44665 3.50201ZM3.23352 5.21053C3.23352 11.5826 8.41759 16.7667 14.7896 16.7667H15.4959L16.6016 14.522L13.3133 12.0558L11.4825 13.4288H11.2742C10.0273 13.4274 8.83186 12.9315 7.95016 12.0498C7.06845 11.168 6.5725 9.9726 6.5711 8.72568V8.51736L7.94411 6.68666L5.47817 3.39857L3.23352 4.50447V5.21053Z" fill="white"/>
</svg>
