<svg width="20" height="17" viewBox="0 0 20 17" fill="none" xmlns="http://www.w3.org/2000/svg">
<g filter="url(#filter0_d_14_448)">
<path d="M13.7367 6.98016L18.8625 2.52683V11.3827L13.7367 6.98016ZM7.13167 7.73433L8.93167 9.29683C9.21417 9.53683 9.5825 9.68183 9.985 9.68183H9.99917H9.99833H10.01C10.4133 9.68183 10.7817 9.536 11.0675 9.29433L11.065 9.296L12.865 7.7335L18.3367 12.4327H1.6625L7.13167 7.73433ZM1.655 1.471H18.3467L10.3292 8.43433C10.239 8.50563 10.1274 8.54439 10.0125 8.54433H10.0008H10.0017H9.99C9.87466 8.54448 9.76269 8.50539 9.6725 8.4335L9.67333 8.43433L1.655 1.471ZM1.1375 2.526L6.2625 6.97933L1.1375 11.3793V2.526ZM19.1375 0.491829C18.9375 0.391829 18.7025 0.333496 18.4533 0.333496H1.54917C1.30763 0.333554 1.06942 0.389755 0.853333 0.497663L0.8625 0.493496C0.603811 0.621089 0.385956 0.818478 0.233545 1.06337C0.0811339 1.30826 0.000239457 1.59089 0 1.87933L0 12.0227C0.00044117 12.4332 0.16371 12.8267 0.453984 13.117C0.744257 13.4073 1.13783 13.5706 1.54833 13.571H18.4508C18.8613 13.5706 19.2549 13.4073 19.5452 13.117C19.8355 12.8267 19.9987 12.4332 19.9992 12.0227V1.87933C19.9992 1.2735 19.65 0.748496 19.1417 0.495996L19.1325 0.491829H19.1375Z" fill="white"/>
</g>
<defs>
<filter id="filter0_d_14_448" x="-4" y="0.333496" width="27.9992" height="21.2373" filterUnits="userSpaceOnUse" color-interpolation-filters="sRGB">
<feFlood flood-opacity="0" result="BackgroundImageFix"/>
<feColorMatrix in="SourceAlpha" type="matrix" values="0 0 0 0 0 0 0 0 0 0 0 0 0 0 0 0 0 0 127 0" result="hardAlpha"/>
<feOffset dy="4"/>
<feGaussianBlur stdDeviation="2"/>
<feComposite in2="hardAlpha" operator="out"/>
<feColorMatrix type="matrix" values="0 0 0 0 0 0 0 0 0 0 0 0 0 0 0 0 0 0 0.25 0"/>
<feBlend mode="normal" in2="BackgroundImageFix" result="effect1_dropShadow_14_448"/>
<feBlend mode="normal" in="SourceGraphic" in2="effect1_dropShadow_14_448" result="shape"/>
</filter>
</defs>
</svg>
