<svg width="20" height="20" viewBox="0 0 20 20" fill="none" xmlns="http://www.w3.org/2000/svg">
<g clip-path="url(#clip0_14_447)">
<path d="M13.7367 9.98016L18.8625 5.52683V14.3827L13.7367 9.98016ZM7.13167 10.7343L8.93167 12.2968C9.21417 12.5368 9.5825 12.6818 9.985 12.6818H9.99917H9.99833H10.01C10.4133 12.6818 10.7817 12.536 11.0675 12.2943L11.065 12.296L12.865 10.7335L18.3367 15.4327H1.6625L7.13167 10.7343ZM1.655 4.471H18.3467L10.3292 11.4343C10.239 11.5056 10.1274 11.5444 10.0125 11.5443H10.0008H10.0017H9.99C9.87466 11.5445 9.76269 11.5054 9.6725 11.4335L9.67333 11.4343L1.655 4.471ZM1.1375 5.526L6.2625 9.97933L1.1375 14.3793V5.526ZM19.1375 3.49183C18.9375 3.39183 18.7025 3.3335 18.4533 3.3335H1.54917C1.30763 3.33355 1.06942 3.38975 0.853333 3.49766L0.8625 3.4935C0.603811 3.62109 0.385956 3.81848 0.233545 4.06337C0.0811339 4.30826 0.000239457 4.59089 0 4.87933L0 15.0227C0.00044117 15.4332 0.16371 15.8267 0.453984 16.117C0.744257 16.4073 1.13783 16.5706 1.54833 16.571H18.4508C18.8613 16.5706 19.2549 16.4073 19.5452 16.117C19.8355 15.8267 19.9987 15.4332 19.9992 15.0227V4.87933C19.9992 4.2735 19.65 3.7485 19.1417 3.496L19.1325 3.49183H19.1375Z" fill="white"/>
</g>
<defs>
<clipPath id="clip0_14_447">
<rect width="20" height="20" fill="white"/>
</clipPath>
</defs>
</svg>
