<svg width="18" height="18" viewBox="0 0 18 18" fill="none" xmlns="http://www.w3.org/2000/svg">
<path d="M1.44665 2.50201L1.47341 2.48529L4.85594 0.818848L8.50684 5.6867L6.82716 7.92643C6.87742 8.77108 7.23561 9.568 7.83394 10.1663C8.43226 10.7646 9.22918 11.1228 10.0738 11.1731L12.3135 9.49338L17.1813 13.1442L15.5288 16.4985L15.5149 16.5268L15.4981 16.5535C15.4099 16.6956 15.2868 16.8128 15.1405 16.8938C14.9943 16.9749 14.8297 17.0172 14.6624 17.0167H13.7896C12.1079 17.0167 10.4426 16.6854 8.88893 16.0419C7.33522 15.3983 5.92348 14.455 4.73433 13.2658C3.54517 12.0767 2.60188 10.6649 1.95832 9.11122C1.31475 7.55751 0.983518 5.89225 0.983523 4.21053V3.33768C0.982987 3.17044 1.02527 3.00585 1.10633 2.85957C1.1874 2.7133 1.30455 2.5902 1.44665 2.50201V2.50201ZM2.23352 4.21053C2.23352 10.5826 7.41759 15.7667 13.7896 15.7667H14.4959L15.6016 13.522L12.3133 11.0558L10.4825 12.4288H10.2742C9.02731 12.4274 7.83186 11.9315 6.95016 11.0498C6.06845 10.168 5.5725 8.9726 5.5711 7.72568V7.51736L6.94411 5.68666L4.47817 2.39857L2.23352 3.50447V4.21053Z" fill="white"/>
</svg>
