<svg width="80" height="80" viewBox="0 0 80 80" fill="none" xmlns="http://www.w3.org/2000/svg">
<path d="M12.5 17.1429C11.837 17.1429 11.2011 16.8418 10.7322 16.306C10.2634 15.7702 10 15.0435 10 14.2857C10 13.528 10.2634 12.8012 10.7322 12.2654C11.2011 11.7296 11.837 11.4286 12.5 11.4286H67.5C68.163 11.4286 68.7989 11.7296 69.2678 12.2654C69.7366 12.8012 70 13.528 70 14.2857C70 15.0435 69.7366 15.7702 69.2678 16.306C68.7989 16.8418 68.163 17.1429 67.5 17.1429H12.5ZM22.5 5.71429C21.837 5.71429 21.2011 5.41327 20.7322 4.87745C20.2634 4.34163 20 3.6149 20 2.85714C20 2.09938 20.2634 1.37266 20.7322 0.836838C21.2011 0.301019 21.837 0 22.5 0H57.5C58.163 0 58.7989 0.301019 59.2678 0.836838C59.7366 1.37266 60 2.09938 60 2.85714C60 3.6149 59.7366 4.34163 59.2678 4.87745C58.7989 5.41327 58.163 5.71429 57.5 5.71429H22.5ZM0 71.4286C0 73.7019 0.790176 75.882 2.1967 77.4895C3.60322 79.0969 5.51088 80 7.5 80H72.5C74.4891 80 76.3968 79.0969 77.8033 77.4895C79.2098 75.882 80 73.7019 80 71.4286V31.4286C80 29.1553 79.2098 26.9751 77.8033 25.3677C76.3968 23.7602 74.4891 22.8571 72.5 22.8571H7.5C5.51088 22.8571 3.60322 23.7602 2.1967 25.3677C0.790176 26.9751 0 29.1553 0 31.4286L0 71.4286ZM7.5 74.2857C6.83696 74.2857 6.20107 73.9847 5.73223 73.4489C5.26339 72.9131 5 72.1863 5 71.4286V31.4286C5 30.6708 5.26339 29.9441 5.73223 29.4083C6.20107 28.8724 6.83696 28.5714 7.5 28.5714H72.5C73.163 28.5714 73.7989 28.8724 74.2678 29.4083C74.7366 29.9441 75 30.6708 75 31.4286V71.4286C75 72.1863 74.7366 72.9131 74.2678 73.4489C73.7989 73.9847 73.163 74.2857 72.5 74.2857H7.5Z" fill="white"/>
</svg>
