<svg width="88" height="88" viewBox="0 0 88 88" fill="none" xmlns="http://www.w3.org/2000/svg">
<path d="M7.66564 35.3623C7.84781 33.3576 8.87823 31.4871 10.5517 30.1232C12.2252 28.7594 14.4189 28.0023 16.696 28.0027H71.304C73.5811 28.0023 75.7748 28.7594 77.4483 30.1232C79.1218 31.4871 80.1522 33.3576 80.3344 35.3623L83.971 75.3604C84.071 76.4611 83.9119 77.5682 83.5037 78.6119C83.0956 79.6557 82.4471 80.6135 81.5993 81.4251C80.7514 82.2366 79.7225 82.8844 78.5773 83.3275C77.4321 83.7707 76.1954 83.9996 74.9451 84H13.0549C11.8046 83.9996 10.5679 83.7707 9.42271 83.3275C8.27751 82.8844 7.24859 82.2366 6.40073 81.4251C5.55288 80.6135 4.90445 79.6557 4.49627 78.6119C4.08809 77.5682 3.92901 76.4611 4.02903 75.3604L7.66564 35.3623V35.3623Z" stroke="white" stroke-width="8" stroke-linecap="round" stroke-linejoin="round"/>
<path d="M62.1152 39.9982V19.9992C62.1152 15.756 60.2067 11.6865 56.8094 8.68606C53.4122 5.68563 48.8045 4 44.0001 4C39.1957 4 34.588 5.68563 31.1908 8.68606C27.7936 11.6865 25.885 15.756 25.885 19.9992V39.9982" stroke="white" stroke-width="8" stroke-linecap="round" stroke-linejoin="round"/>
</svg>
