<svg width="80" height="80" viewBox="0 0 80 80" fill="none" xmlns="http://www.w3.org/2000/svg">
<path d="M40 0C17.944 0 0 17.944 0 40L0 56.572C0 60.668 3.588 64 8 64H12C13.0609 64 14.0783 63.5786 14.8284 62.8284C15.5786 62.0783 16 61.0609 16 60V39.428C16 38.3671 15.5786 37.3497 14.8284 36.5996C14.0783 35.8494 13.0609 35.428 12 35.428H8.368C10.592 19.948 23.912 8 40 8C56.088 8 69.408 19.948 71.632 35.428H68C66.9391 35.428 65.9217 35.8494 65.1716 36.5996C64.4214 37.3497 64 38.3671 64 39.428V64C64 68.412 60.412 72 56 72H48V68H32V80H56C64.824 80 72 72.824 72 64C76.412 64 80 60.668 80 56.572V40C80 17.944 62.056 0 40 0Z" fill="white"/>
</svg>
