<svg width="21" height="19" viewBox="0 0 21 19" fill="none" xmlns="http://www.w3.org/2000/svg">
<path d="M21 2.25375C20.2277 2.6346 19.3981 2.89193 18.526 3.00825C19.4259 2.40896 20.0991 1.46576 20.4201 0.354625C19.5746 0.913543 18.6493 1.30696 17.6844 1.51777C17.0355 0.746662 16.176 0.235558 15.2393 0.0638109C14.3027 -0.107936 13.3413 0.0692844 12.5044 0.567957C11.6675 1.06663 11.002 1.85885 10.6111 2.82163C10.2203 3.78441 10.1259 4.86388 10.3428 5.89244C8.62963 5.79671 6.95372 5.30114 5.4238 4.4379C3.89389 3.57465 2.54416 2.36302 1.46221 0.881644C1.09227 1.59188 0.879547 2.41535 0.879547 3.29235C0.879135 4.08184 1.05382 4.85924 1.38811 5.55558C1.7224 6.25191 2.20595 6.84565 2.79587 7.2841C2.11172 7.25988 1.44267 7.05413 0.844402 6.684V6.74576C0.844333 7.85306 1.18848 8.92628 1.81846 9.78333C2.44843 10.6404 3.32542 11.2284 4.30063 11.4478C3.66597 11.6389 3.00058 11.6671 2.35471 11.5301C2.62985 12.4829 3.16581 13.316 3.88755 13.9129C4.60929 14.5099 5.48068 14.8406 6.37972 14.859C4.85354 16.1924 2.96871 16.9157 1.02845 16.9125C0.684753 16.9126 0.341346 16.8903 0 16.8456C1.96948 18.2549 4.2621 19.0029 6.60354 19C14.5296 19 18.8626 11.6938 18.8626 5.35719C18.8626 5.15132 18.858 4.9434 18.8497 4.73753C19.6925 4.05917 20.42 3.21916 20.9982 2.25684L21 2.25375V2.25375Z" fill="#949494"/>
</svg>
