<svg width="19" height="19" viewBox="0 0 19 19" fill="none" xmlns="http://www.w3.org/2000/svg">
<path fill-rule="evenodd" clip-rule="evenodd" d="M5.58341 0.057C6.59645 0.0103636 6.91945 0 9.5 0C12.0805 0 12.4035 0.0112273 13.4157 0.057C14.4279 0.102773 15.1188 0.264273 15.7234 0.498318C16.3564 0.737545 16.9307 1.1115 17.4057 1.59514C17.8894 2.06927 18.2625 2.64273 18.5008 3.27664C18.7357 3.88118 18.8964 4.57209 18.943 5.58255C18.9896 6.59732 19 6.92032 19 9.5C19 12.0805 18.9888 12.4035 18.943 13.4166C18.8972 14.427 18.7357 15.118 18.5008 15.7225C18.2624 16.3565 17.8887 16.9309 17.4057 17.4057C16.9307 17.8894 16.3564 18.2625 15.7234 18.5008C15.1188 18.7357 14.4279 18.8964 13.4175 18.943C12.4035 18.9896 12.0805 19 9.5 19C6.91945 19 6.59645 18.9888 5.58341 18.943C4.57295 18.8972 3.88205 18.7357 3.2775 18.5008C2.64352 18.2624 2.06912 17.8887 1.59427 17.4057C1.11096 16.9313 0.736954 16.3572 0.498318 15.7234C0.264273 15.1188 0.103636 14.4279 0.057 13.4175C0.0103636 12.4027 0 12.0797 0 9.5C0 6.91945 0.0112273 6.59645 0.057 5.58427C0.102773 4.57209 0.264273 3.88118 0.498318 3.27664C0.737306 2.6428 1.1116 2.06868 1.59514 1.59427C2.06931 1.11107 2.64314 0.737065 3.27664 0.498318C3.88118 0.264273 4.57209 0.103636 5.58255 0.057H5.58341ZM13.3389 1.767C12.337 1.72123 12.0365 1.71173 9.5 1.71173C6.9635 1.71173 6.66295 1.72123 5.66114 1.767C4.73445 1.80932 4.23182 1.96391 3.89673 2.09432C3.45368 2.26705 3.13673 2.47173 2.80423 2.80423C2.48904 3.11086 2.24647 3.48415 2.09432 3.89673C1.96391 4.23182 1.80932 4.73445 1.767 5.66114C1.72123 6.66295 1.71173 6.9635 1.71173 9.5C1.71173 12.0365 1.72123 12.337 1.767 13.3389C1.80932 14.2655 1.96391 14.7682 2.09432 15.1033C2.24632 15.5152 2.489 15.8892 2.80423 16.1958C3.11082 16.511 3.48477 16.7537 3.89673 16.9057C4.23182 17.0361 4.73445 17.1907 5.66114 17.233C6.66295 17.2788 6.96264 17.2883 9.5 17.2883C12.0374 17.2883 12.337 17.2788 13.3389 17.233C14.2655 17.1907 14.7682 17.0361 15.1033 16.9057C15.5463 16.733 15.8633 16.5283 16.1958 16.1958C16.511 15.8892 16.7537 15.5152 16.9057 15.1033C17.0361 14.7682 17.1907 14.2655 17.233 13.3389C17.2788 12.337 17.2883 12.0365 17.2883 9.5C17.2883 6.9635 17.2788 6.66295 17.233 5.66114C17.1907 4.73445 17.0361 4.23182 16.9057 3.89673C16.733 3.45368 16.5283 3.13673 16.1958 2.80423C15.8891 2.48906 15.5158 2.2465 15.1033 2.09432C14.7682 1.96391 14.2655 1.80932 13.3389 1.767V1.767ZM8.28659 12.4286C8.96425 12.7107 9.71883 12.7488 10.4214 12.5363C11.1241 12.3239 11.7311 11.8741 12.1389 11.2638C12.5468 10.6534 12.73 9.92048 12.6575 9.19005C12.5849 8.45961 12.261 7.77702 11.7411 7.25886C11.4097 6.92764 11.009 6.67402 10.5677 6.51626C10.1265 6.35851 9.65583 6.30054 9.18952 6.34653C8.72321 6.39252 8.2729 6.54133 7.87101 6.78225C7.46912 7.02316 7.12564 7.35019 6.86531 7.73978C6.60497 8.12937 6.43425 8.57184 6.36545 9.03533C6.29664 9.49882 6.33145 9.9718 6.46738 10.4202C6.6033 10.8686 6.83696 11.2813 7.15153 11.6286C7.4661 11.9759 7.85376 12.2491 8.28659 12.4286ZM6.04718 6.04718C6.50061 5.59375 7.03891 5.23407 7.63135 4.98868C8.22378 4.74328 8.85875 4.61698 9.5 4.61698C10.1412 4.61698 10.7762 4.74328 11.3687 4.98868C11.9611 5.23407 12.4994 5.59375 12.9528 6.04718C13.4062 6.50061 13.7659 7.03891 14.0113 7.63135C14.2567 8.22378 14.383 8.85875 14.383 9.5C14.383 10.1412 14.2567 10.7762 14.0113 11.3687C13.7659 11.9611 13.4062 12.4994 12.9528 12.9528C12.0371 13.8686 10.7951 14.383 9.5 14.383C8.20494 14.383 6.96293 13.8686 6.04718 12.9528C5.13144 12.0371 4.61698 10.7951 4.61698 9.5C4.61698 8.20494 5.13144 6.96293 6.04718 6.04718V6.04718ZM15.466 5.34418C15.5784 5.23819 15.6683 5.11072 15.7305 4.96934C15.7928 4.82796 15.826 4.67553 15.8282 4.52108C15.8305 4.36662 15.8017 4.21329 15.7436 4.07015C15.6856 3.92702 15.5994 3.79699 15.4901 3.68776C15.3809 3.57854 15.2509 3.49234 15.1078 3.43427C14.9646 3.37619 14.8113 3.34743 14.6568 3.34969C14.5024 3.35194 14.35 3.38516 14.2086 3.44737C14.0672 3.50959 13.9397 3.59955 13.8337 3.71191C13.6276 3.93043 13.5147 4.2207 13.5191 4.52108C13.5235 4.82146 13.6448 5.1083 13.8572 5.32073C14.0696 5.53315 14.3565 5.65442 14.6568 5.6588C14.9572 5.66318 15.2475 5.55032 15.466 5.34418V5.34418Z" fill="#949494"/>
</svg>
