<svg width="19" height="19" viewBox="0 0 19 19" fill="none" xmlns="http://www.w3.org/2000/svg">
<path d="M18.9906 4.39199C18.9073 6.53148 17.6154 9.45835 15.1183 13.1769C12.537 17.0589 10.3503 19 8.56069 19C7.45238 19 6.51597 17.8157 5.75055 15.4546C5.24028 13.2856 4.73091 11.1165 4.2152 8.95277C3.64793 6.59164 3.03904 5.40738 2.3831 5.40738C2.24286 5.40738 1.74344 5.75569 0.894792 6.44176L0 5.10656C0.93641 4.15029 1.86377 3.2014 2.77395 2.24618C4.02249 0.995422 4.96524 0.341017 5.58951 0.274521C7.06696 0.113031 7.97804 1.27829 8.32184 3.78403C8.69097 6.48187 8.94611 8.16432 9.09178 8.81873C9.51881 11.0606 9.98747 12.1784 10.4968 12.1784C10.8922 12.1784 11.4912 11.4522 12.2873 9.99771C13.0835 8.54324 13.5096 7.43814 13.5675 6.6803C13.6815 5.42427 13.2554 4.79941 12.2873 4.79941C11.835 4.79941 11.3663 4.91974 10.8823 5.16039C11.8142 1.62133 13.5983 -0.0980673 16.232 0.00431542C18.1836 0.0644785 19.1046 1.53056 18.9906 4.39094V4.39199Z" fill="#949494"/>
</svg>
