<svg width="10" height="10" viewBox="0 0 10 10" fill="none" xmlns="http://www.w3.org/2000/svg">
<path d="M6.59086 5L9.67052 1.92034C10.1098 1.48103 10.1098 0.768789 9.67052 0.329481C9.23119 -0.109827 8.51899 -0.109827 8.07966 0.329481L5 3.40914L1.92034 0.329481C1.48103 -0.109827 0.768789 -0.109827 0.329481 0.329481C-0.109827 0.768789 -0.109827 1.48103 0.329481 1.92034L3.40914 5L0.329481 8.07966C-0.109827 8.51896 -0.109827 9.23121 0.329481 9.67052C0.549135 9.89015 0.837018 10 1.1249 10C1.41278 10 1.70069 9.89017 1.92032 9.67052L5 6.59086L8.07966 9.67052C8.29931 9.89015 8.58719 10 8.87508 10C9.16296 10 9.45084 9.89017 9.6705 9.67052C10.1098 9.23121 10.1098 8.51896 9.6705 8.07966L6.59086 5Z" fill="black"/>
</svg>
