<svg width="106" height="24" viewBox="0 0 106 24" fill="none" xmlns="http://www.w3.org/2000/svg">
<path d="M24.7367 2.25847V2.86073C24.1047 2.8808 23.6208 2.9611 23.2851 3.10163C22.9493 3.22208 22.7222 3.46299 22.6037 3.82434C22.505 4.16562 22.4556 4.70765 22.4556 5.45044V20.3864C22.4556 21.1092 22.5148 21.6512 22.6333 22.0125C22.7518 22.3739 22.9691 22.6148 23.2851 22.7353C23.6208 22.8557 24.1047 22.936 24.7367 22.9762V23.5784C24.2232 23.5383 23.5714 23.5182 22.7815 23.5182C21.9915 23.4981 21.1916 23.4881 20.3818 23.4881C19.4931 23.4881 18.6537 23.4981 17.8637 23.5182C17.0935 23.5182 16.4714 23.5383 15.9974 23.5784V22.9762C16.6689 22.936 17.1725 22.8557 17.5082 22.7353C17.8637 22.6148 18.1007 22.3739 18.2192 22.0125C18.3377 21.6512 18.397 21.1092 18.397 20.3864V4.00502L18.6044 4.03513L11.2574 23.6688H10.7834L2.96248 4.1857V19.1217C2.96248 20.0853 3.02173 20.8381 3.14023 21.3802C3.25873 21.9021 3.51547 22.2836 3.91047 22.5245C4.32522 22.7453 4.94734 22.8959 5.77683 22.9762V23.5784C5.40159 23.5383 4.91771 23.5182 4.32522 23.5182C3.73272 23.4981 3.16985 23.4881 2.63661 23.4881C2.16261 23.4881 1.67874 23.4981 1.18499 23.5182C0.710995 23.5182 0.315998 23.5383 0 23.5784V22.9762C0.651745 22.8959 1.13562 22.7453 1.45161 22.5245C1.78736 22.3036 2.00461 21.9423 2.10336 21.4404C2.22186 20.9385 2.28111 20.2459 2.28111 19.3626V5.45044C2.28111 4.70765 2.22186 4.16562 2.10336 3.82434C2.00461 3.46299 1.78736 3.22208 1.45161 3.10163C1.13562 2.9611 0.651745 2.8808 0 2.86073V2.25847C0.315998 2.27855 0.710995 2.29862 1.18499 2.3187C1.67874 2.33877 2.16261 2.34881 2.63661 2.34881C3.36735 2.34881 4.07834 2.33877 4.76959 2.3187C5.46083 2.29862 6.07308 2.27855 6.60633 2.25847L12.9757 18.4291L12.3239 18.9711L18.5155 2.34881C18.8117 2.34881 19.1179 2.34881 19.4339 2.34881C19.7696 2.34881 20.0856 2.34881 20.3818 2.34881C21.1916 2.34881 21.9915 2.33877 22.7815 2.3187C23.5714 2.29862 24.2232 2.27855 24.7367 2.25847Z" fill="white"/>
<path d="M30.2818 0.331243C30.9928 0.331243 31.5755 0.531996 32.0297 0.933501C32.484 1.33501 32.7111 1.867 32.7111 2.52948C32.7111 3.19197 32.484 3.72397 32.0297 4.12547C31.5755 4.52698 30.9928 4.72773 30.2818 4.72773C29.5709 4.72773 28.9882 4.52698 28.534 4.12547C28.0797 3.72397 27.8526 3.19197 27.8526 2.52948C27.8526 1.867 28.0797 1.33501 28.534 0.933501C28.9882 0.531996 29.5709 0.331243 30.2818 0.331243ZM32.3556 7.6788V20.7779C32.3556 21.6211 32.5037 22.1932 32.8 22.4944C33.1159 22.7955 33.6393 22.946 34.3701 22.946V23.5784C34.0146 23.5583 33.4714 23.5383 32.7407 23.5182C32.01 23.478 31.2693 23.458 30.5188 23.458C29.7881 23.458 29.0475 23.478 28.297 23.5182C27.5465 23.5383 26.9836 23.5583 26.6084 23.5784V22.946C27.3391 22.946 27.8526 22.7955 28.1489 22.4944C28.4649 22.1932 28.6229 21.6211 28.6229 20.7779V11.3225C28.6229 10.399 28.4747 9.72647 28.1785 9.30489C27.902 8.86324 27.3786 8.64241 26.6084 8.64241V8.01004C27.2404 8.07026 27.8526 8.10038 28.4451 8.10038C29.1759 8.10038 29.8671 8.07026 30.5188 8.01004C31.1903 7.92974 31.8026 7.81932 32.3556 7.6788Z" fill="white"/>
<path d="M45.5569 7.58846C46.1691 7.58846 46.6728 7.71895 47.0678 7.97993C47.4825 8.2409 47.7886 8.57215 47.9861 8.97365C48.1836 9.37516 48.2824 9.79674 48.2824 10.2384C48.2824 10.9009 48.0849 11.4529 47.6899 11.8946C47.3146 12.3363 46.811 12.5571 46.179 12.5571C45.5865 12.5571 45.1026 12.3965 44.7274 12.0753C44.3521 11.7541 44.1645 11.3124 44.1645 10.7503C44.1645 10.2484 44.283 9.82685 44.52 9.48557C44.7768 9.14429 45.0631 8.87327 45.3791 8.67252C45.1619 8.55207 44.915 8.51192 44.6385 8.55207C44.1645 8.59222 43.73 8.76286 43.335 9.06399C42.94 9.36512 42.6043 9.73651 42.3278 10.1782C42.0513 10.6198 41.834 11.0916 41.676 11.5935C41.5378 12.0954 41.4687 12.5772 41.4687 13.0389V20.4768C41.4687 21.4605 41.7155 22.123 42.2093 22.4642C42.703 22.7854 43.4239 22.946 44.3719 22.946V23.5784C43.9177 23.5583 43.256 23.5383 42.387 23.5182C41.5378 23.478 40.6491 23.458 39.7208 23.458C38.9506 23.458 38.1803 23.478 37.4101 23.5182C36.6596 23.5383 36.0967 23.5583 35.7215 23.5784V22.946C36.4522 22.946 36.9657 22.7955 37.262 22.4944C37.578 22.1932 37.736 21.6211 37.736 20.7779V11.2923C37.736 10.389 37.5878 9.72647 37.2916 9.30489C37.0151 8.86324 36.4917 8.64241 35.7215 8.64241V8.01004C36.3535 8.07026 36.9657 8.10038 37.5582 8.10038C38.2889 8.10038 38.9802 8.07026 39.6319 8.01004C40.3034 7.92974 40.9157 7.81932 41.4687 7.6788V10.8105C41.7057 10.2484 42.0118 9.72647 42.387 9.24467C42.782 8.76286 43.2462 8.37139 43.7794 8.07026C44.3324 7.74906 44.9249 7.58846 45.5569 7.58846Z" fill="white"/>
<path d="M53.4366 23.7892C52.5874 23.7892 51.8665 23.6286 51.274 23.3074C50.6815 22.9661 50.2371 22.5144 49.9409 21.9523C49.6446 21.3701 49.4965 20.7277 49.4965 20.0251C49.4965 19.1619 49.694 18.4592 50.089 17.9172C50.484 17.3551 50.9876 16.9134 51.5999 16.5922C52.2319 16.2509 52.8935 15.9699 53.5847 15.7491C54.276 15.5082 54.9277 15.2873 55.54 15.0866C56.1522 14.8657 56.6558 14.6148 57.0508 14.3338C57.4458 14.0527 57.6433 13.6813 57.6433 13.2196V11.0213C57.6433 10.3789 57.5446 9.85696 57.3471 9.45546C57.1693 9.03388 56.8928 8.72271 56.5176 8.52196C56.1621 8.30113 55.7079 8.19071 55.1549 8.19071C54.7401 8.19071 54.3056 8.25094 53.8514 8.37139C53.3971 8.49185 53.0219 8.72271 52.7256 9.06399C53.2391 9.20452 53.6341 9.4655 53.9106 9.84693C54.2069 10.2284 54.355 10.6901 54.355 11.2321C54.355 11.8545 54.1476 12.3463 53.7329 12.7077C53.3379 13.0489 52.8343 13.2196 52.222 13.2196C51.5703 13.2196 51.0765 13.0088 50.7408 12.5872C50.405 12.1656 50.2371 11.6738 50.2371 11.1117C50.2371 10.5496 50.3754 10.0878 50.6519 9.72647C50.9284 9.34504 51.3135 9.00376 51.8073 8.70263C52.301 8.36135 52.933 8.09034 53.7032 7.88959C54.4735 7.68883 55.3129 7.58846 56.2214 7.58846C57.0903 7.58846 57.8606 7.68883 58.5321 7.88959C59.2036 8.07026 59.7763 8.40151 60.2503 8.88331C60.7243 9.34504 61.0304 9.91719 61.1687 10.5997C61.3069 11.2823 61.3761 12.1154 61.3761 13.0991V21.3501C61.3761 21.8519 61.4353 22.2133 61.5538 22.4341C61.6723 22.6349 61.8599 22.7353 62.1167 22.7353C62.3142 22.7353 62.5018 22.6851 62.6796 22.5847C62.8573 22.4843 63.0548 22.3438 63.272 22.1631L63.5979 22.675C63.1634 23.0163 62.7092 23.2873 62.2352 23.4881C61.7612 23.6888 61.1884 23.7892 60.5169 23.7892C59.8257 23.7892 59.2727 23.6888 58.858 23.4881C58.463 23.2873 58.1667 22.9962 57.9692 22.6148C57.7915 22.2334 57.6927 21.7817 57.673 21.2597C57.199 22.0627 56.6163 22.6851 55.9251 23.1267C55.2339 23.5684 54.4044 23.7892 53.4366 23.7892ZM55.2141 22.1029C55.6881 22.1029 56.1226 21.9724 56.5176 21.7114C56.9323 21.4504 57.3076 21.059 57.6433 20.537V14.4542C57.4458 14.7553 57.1595 15.0263 56.7842 15.2673C56.4287 15.5082 56.0436 15.7491 55.6289 15.99C55.2141 16.2309 54.8191 16.5119 54.4439 16.8331C54.0884 17.1343 53.7822 17.5157 53.5255 17.9774C53.2885 18.4191 53.17 18.9912 53.17 19.6939C53.17 20.4768 53.3576 21.079 53.7329 21.5006C54.1081 21.9021 54.6019 22.1029 55.2141 22.1029Z" fill="white"/>
<path d="M70.0189 0V20.7779C70.0189 21.6211 70.167 22.1932 70.4632 22.4944C70.7792 22.7955 71.3026 22.946 72.0333 22.946V23.5784C71.6778 23.5583 71.1347 23.5383 70.404 23.5182C69.693 23.478 68.9622 23.458 68.2117 23.458C67.481 23.458 66.7305 23.478 65.9603 23.5182C65.2098 23.5383 64.6469 23.5583 64.2717 23.5784V22.946C65.0024 22.946 65.5159 22.7955 65.8121 22.4944C66.1281 22.1932 66.2861 21.6211 66.2861 20.7779V3.61355C66.2861 2.71016 66.1479 2.04768 65.8714 1.6261C65.5949 1.18444 65.0616 0.963614 64.2717 0.963614V0.331243C64.9036 0.391468 65.5159 0.421581 66.1084 0.421581C66.8589 0.421581 67.56 0.391468 68.2117 0.331243C68.8635 0.250942 69.4659 0.140528 70.0189 0Z" fill="white"/>
<path d="M80.6532 7.58846C82.016 7.58846 83.2207 7.86951 84.2674 8.43162C85.3339 8.97365 86.1733 9.84693 86.7856 11.0514C87.4176 12.256 87.7336 13.8419 87.7336 15.8093C87.7336 17.7767 87.4176 19.3626 86.7856 20.5671C86.1733 21.7716 85.3339 22.6449 84.2674 23.187C83.2207 23.729 82.016 24 80.6532 24C79.2905 24 78.0759 23.729 77.0094 23.187C75.9429 22.6449 75.1035 21.7716 74.4913 20.5671C73.879 19.3626 73.5729 17.7767 73.5729 15.8093C73.5729 13.8419 73.879 12.256 74.4913 11.0514C75.1035 9.84693 75.9429 8.97365 77.0094 8.43162C78.0759 7.86951 79.2905 7.58846 80.6532 7.58846ZM80.6532 8.19071C79.725 8.19071 78.9646 8.79297 78.3721 9.99749C77.7994 11.1819 77.513 13.1192 77.513 15.8093C77.513 18.4994 77.7994 20.4366 78.3721 21.6211C78.9646 22.8055 79.725 23.3977 80.6532 23.3977C81.5617 23.3977 82.3122 22.8055 82.9047 21.6211C83.4972 20.4366 83.7935 18.4994 83.7935 15.8093C83.7935 13.1192 83.4972 11.1819 82.9047 9.99749C82.3122 8.79297 81.5617 8.19071 80.6532 8.19071Z" fill="white"/>
<path d="M103.986 7.6788V20.3262C103.986 21.2296 104.134 21.9021 104.43 22.3438C104.726 22.7654 105.25 22.9762 106 22.9762V23.6085C105.388 23.5483 104.776 23.5182 104.163 23.5182C103.433 23.5182 102.731 23.5483 102.06 23.6085C101.408 23.6688 100.806 23.7792 100.253 23.9398V20.9285C99.759 22.0326 99.0777 22.8256 98.2087 23.3074C97.3594 23.7691 96.4411 24 95.4536 24C94.6833 24 94.0316 23.8896 93.4984 23.6688C92.9849 23.468 92.5701 23.187 92.2541 22.8256C91.9184 22.4442 91.6814 21.9423 91.5431 21.32C91.4049 20.6976 91.3357 19.8946 91.3357 18.9109V11.2923C91.3357 10.389 91.1876 9.72647 90.8914 9.30489C90.6149 8.86324 90.0915 8.64241 89.3213 8.64241V8.01004C89.9532 8.07026 90.5655 8.10038 91.158 8.10038C91.8887 8.10038 92.58 8.07026 93.2317 8.01004C93.9032 7.92974 94.5155 7.81932 95.0685 7.6788V19.9649C95.0685 20.5069 95.108 20.9887 95.187 21.4103C95.2857 21.8319 95.4733 22.1731 95.7498 22.4341C96.0263 22.675 96.4411 22.7955 96.9941 22.7955C97.6063 22.7955 98.1593 22.6148 98.6531 22.2534C99.1468 21.8921 99.5319 21.4003 99.8084 20.7779C100.105 20.1556 100.253 19.4529 100.253 18.67V11.2923C100.253 10.389 100.105 9.72647 99.8084 9.30489C99.5319 8.86324 99.0086 8.64241 98.2383 8.64241V8.01004C98.8703 8.07026 99.4826 8.10038 100.075 8.10038C100.806 8.10038 101.497 8.07026 102.149 8.01004C102.82 7.92974 103.433 7.81932 103.986 7.6788Z" fill="white"/>
</svg>
