<svg width="16" height="16" viewBox="0 0 16 16" fill="none" xmlns="http://www.w3.org/2000/svg">
<circle cx="8" cy="8" r="8" fill="white"/>
<path d="M13 4V4.22503C12.7445 4.23254 12.5489 4.26254 12.4132 4.31505C12.2774 4.36006 12.1856 4.45007 12.1377 4.58509C12.0978 4.71261 12.0778 4.91514 12.0778 5.19269V10.7736C12.0778 11.0436 12.1018 11.2461 12.1497 11.3812C12.1976 11.5162 12.2854 11.6062 12.4132 11.6512C12.5489 11.6962 12.7445 11.7262 13 11.7412V11.9662C12.7924 11.9512 12.5289 11.9437 12.2096 11.9437C11.8902 11.9362 11.5669 11.9325 11.2395 11.9325C10.8802 11.9325 10.5409 11.9362 10.2216 11.9437C9.91018 11.9437 9.65868 11.9512 9.46707 11.9662V11.7412C9.73852 11.7262 9.94212 11.6962 10.0778 11.6512C10.2216 11.6062 10.3174 11.5162 10.3653 11.3812C10.4132 11.2461 10.4371 11.0436 10.4371 10.7736V4.6526L10.521 4.66385L7.5509 12H7.35928L4.1976 4.72011V10.301C4.1976 10.661 4.22156 10.9423 4.26946 11.1449C4.31737 11.3399 4.42116 11.4824 4.58084 11.5724C4.7485 11.6549 5 11.7112 5.33533 11.7412V11.9662C5.18363 11.9512 4.98802 11.9437 4.7485 11.9437C4.50898 11.9362 4.28144 11.9325 4.06587 11.9325C3.87425 11.9325 3.67864 11.9362 3.47904 11.9437C3.28743 11.9437 3.12774 11.9512 3 11.9662V11.7412C3.26347 11.7112 3.45908 11.6549 3.58683 11.5724C3.72255 11.4899 3.81038 11.3549 3.8503 11.1674C3.8982 10.9798 3.92216 10.7211 3.92216 10.391V5.19269C3.92216 4.91514 3.8982 4.71261 3.8503 4.58509C3.81038 4.45007 3.72255 4.36006 3.58683 4.31505C3.45908 4.26254 3.26347 4.23254 3 4.22503V4C3.12774 4.0075 3.28743 4.015 3.47904 4.0225C3.67864 4.03 3.87425 4.03375 4.06587 4.03375C4.36128 4.03375 4.6487 4.03 4.92814 4.0225C5.20759 4.015 5.45509 4.0075 5.67066 4L8.24551 10.0422L7.98204 10.2447L10.485 4.03375C10.6048 4.03375 10.7285 4.03375 10.8563 4.03375C10.992 4.03375 11.1198 4.03375 11.2395 4.03375C11.5669 4.03375 11.8902 4.03 12.2096 4.0225C12.5289 4.015 12.7924 4.0075 13 4Z" fill="black"/>
</svg>
